<?xml version="1.0" encoding="utf-8"?>
<!-- Generator: Adobe Illustrator 25.2.2, SVG Export Plug-In . SVG Version: 6.00 Build 0)  -->
<svg version="1.1" id="Calque_1" xmlns="http://www.w3.org/2000/svg" xmlns:xlink="http://www.w3.org/1999/xlink" x="0px" y="0px"
	 viewBox="0 0 750 500" style="enable-background:new 0 0 750 500;" xml:space="preserve">
<style type="text/css">
	.st0{fill:#F5F5F5;}
	.st1{fill:#E0E0E0;}
	.st2{fill:#FAFAFA;}
	.st3{fill:#EBEBEB;}
	.st4{fill:#263238;}
	.st5{fill:#A80000;}
	.st6{fill:#FFBE9D;}
	.st7{fill:#EB996E;}
	.st8{fill:#FFFFFF;}
</style>
<g>
	<path class="st0" d="M472.9,423c-19.5-17-21.3-44.8-17.8-69.2c0.6-4.1,0.6-8.5,2.9-11.8s7.2-5.4,10.6-3.2c2.9,1.8,3.8,5.4,5.2,8.5
		c1.9,4.1,4.8,7.7,8.6,10.2c2.5,1.6,5.6,2.8,8.3,1.7c3.8-1.6,4.7-6.4,5.1-10.5c0.8-7.6,1.5-15.2,2.3-22.8c0.4-4.1,0.8-8.2,2.5-12
		s4.9-7,8.9-7.7s8.5,2.1,8.9,6.2c0.2,1.7-0.4,3.4-0.4,5.1s0.5,3.7,2.1,4.3s3.4-0.3,4.7-1.3c4.7-3.7,8.1-8.6,11.3-13.6
		s6.4-10.1,10.7-14.2s10-7.1,15.8-6.8s11.7,4.6,12.6,10.5s-3.1,11.4-7.3,15.6c-6.2,6.3-13.2,11.7-20.9,16c-1.4,0.8-2.9,1.6-3.5,3.1
		c-1.2,2.6,1.1,5.6,3.7,6.8c2.9,1.3,6.3,1.4,9.4,2.1s6.4,2.5,7.3,5.6c1.2,4.3-2.7,8.3-6.5,10.8c-7.5,5-15.8,8.7-24.5,10.8
		c-3.1,0.8-6.4,1.4-9,3.2s-4.5,5.4-3.3,8.4s4.8,4.4,8,4.1s6.2-1.6,9.3-2.5c5.8-1.5,13-0.4,16.1,4.9c2,3.4,1.7,7.9,0.1,11.5
		s-4.4,6.7-7.3,9.4c-10.1,9.6-22.5,16.8-36,19.9S485.3,429.1,472.9,423"/>
	<path class="st1" d="M480.9,408.3c5.5-12.9,11.8-25.5,18.7-37.8l5.4-9.6c1.8-3.2,3.5-6.3,5.5-9.3c3.7-5.7,7.7-11.1,12-16.4
		c4.1-5,8.1-9.6,11.9-13.9s7.5-8.2,10.9-11.6c5.4-5.5,11.3-10.5,17.6-15c2.2-1.6,4-2.8,5.2-3.6l1.4-0.9c0.1-0.1,0.3-0.2,0.5-0.3
		c-0.1,0.1-0.3,0.2-0.4,0.3l-1.3,1c-1.2,0.8-2.9,2-5.1,3.7c-6.2,4.6-12,9.7-17.4,15.1c-3.4,3.5-7,7.4-10.8,11.7s-7.8,8.9-11.9,14
		c-4.3,5.2-8.2,10.7-11.9,16.3c-1.9,3-3.7,6-5.4,9.2l-5.4,9.6c-6.9,12.2-13.2,24.8-18.7,37.7"/>
	<path class="st1" d="M510.7,351.7c-0.1-0.6-0.2-1.2-0.2-1.8c-0.1-1.1-0.2-2.8-0.2-4.9c-0.1-4.1-0.1-9.8-0.1-16.1s0-12-0.2-16.1
		c-0.1-2-0.2-3.7-0.3-4.9c-0.1-0.6-0.1-1.2,0-1.8c0.2,0.6,0.3,1.2,0.3,1.8c0.2,1.1,0.3,2.8,0.5,4.9c0.3,4.1,0.5,9.8,0.5,16.1
		s-0.1,11.8-0.1,16.1c0,1.9,0,3.6,0,4.9C510.9,350.5,510.8,351.1,510.7,351.7z"/>
	<path class="st1" d="M564.2,347.5c-0.7,0.1-1.4,0.1-2.1,0c-1.4,0-3.3-0.1-5.8,0c-4.8,0-11.6,0.2-18.9,0.8s-14,1.4-18.9,2.2
		c-2.4,0.4-4.3,0.7-5.7,0.9c-0.7,0.2-1.4,0.3-2.1,0.3c0.6-0.2,1.3-0.4,2-0.6c1.3-0.3,3.3-0.7,5.7-1.2c4.8-0.9,11.5-1.8,18.9-2.4
		c6.3-0.5,12.7-0.7,19-0.6c2.4,0,4.4,0.2,5.8,0.3C562.8,347.3,563.5,347.4,564.2,347.5z"/>
	<path class="st1" d="M481.6,407.4c-0.1-0.2-0.2-0.4-0.3-0.7c-0.2-0.5-0.4-1.2-0.7-2c-0.6-1.7-1.4-4.3-2.3-7.4
		c-1.9-6.3-4.2-15-6.6-24.7s-4.7-18.5-6.4-24.8c-0.9-3.1-1.6-5.6-2.1-7.5c-0.2-0.8-0.4-1.5-0.6-2c-0.1-0.2-0.1-0.5-0.2-0.7
		c0.1,0.2,0.2,0.4,0.3,0.7l0.7,2c0.6,1.7,1.4,4.3,2.3,7.4c1.9,6.3,4.2,15,6.6,24.7s4.7,18.5,6.4,24.8c0.9,3.1,1.6,5.6,2.1,7.5l0.5,2
		C481.6,406.9,481.6,407.2,481.6,407.4z"/>
	<path class="st1" d="M553.7,392.5c-0.2,0.1-0.5,0.2-0.7,0.2l-2.1,0.5l-7.7,1.6c-6.5,1.4-15.5,3.4-25.4,5.6s-18.9,4.1-25.5,5.3
		c-3.3,0.6-5.9,1.1-7.8,1.4l-2.1,0.3c-0.2,0.1-0.5,0.1-0.8,0.1c0.2-0.1,0.5-0.2,0.7-0.2l2.1-0.5l7.7-1.6c6.5-1.4,15.5-3.4,25.4-5.6
		s18.9-4.1,25.5-5.3c3.3-0.6,5.9-1.1,7.8-1.4l2.1-0.3C553.2,392.5,553.4,392.5,553.7,392.5z"/>
	<rect x="189" y="208.2" class="st2" width="119.7" height="107.1"/>
	<path class="st1" d="M308.8,315.3c0,0,0-0.7,0-2s0-3.2,0-5.7c0-5,0-12.4-0.1-21.8c0-18.7-0.1-45.5-0.1-77.7l0.3,0.3l-119.8,0.1l0,0
		l0.3-0.3c0,39,0,75.7,0,107.1l-0.3-0.3l86.6,0.1l24.4,0.1h6.5h1.7C308.6,315.3,308.8,315.3,308.8,315.3l-0.5-0.1h-1.6h-6.4
		l-24.4,0.1l-86.8,0.1h-0.3v-0.3c0-31.5,0-68.2,0-107.1v-0.3h0.2l119.7,0.1h0.3v0.3c-0.1,32.3-0.1,59.1-0.1,77.8
		c0,9.3-0.1,16.7-0.1,21.7c0,2.5,0,4.4,0,5.7S308.8,315.3,308.8,315.3z"/>
	<path class="st1" d="M234.9,227.2c0,0.2-6.3,0.3-14.1,0.3s-14.1-0.1-14.1-0.3s6.3-0.3,14.1-0.3S234.9,227.1,234.9,227.2z"/>
	<path class="st1" d="M285.7,235.3c0,0.2-17.3,0.3-38.7,0.3s-38.7-0.1-38.7-0.3s17.3-0.3,38.7-0.3S285.7,235.1,285.7,235.3z"/>
	<rect x="207" y="248.9" class="st1" width="5" height="5"/>
	<rect x="219.4" y="248.9" class="st1" width="5" height="5"/>
	<rect x="232.1" y="248.7" class="st1" width="5" height="5"/>
	<rect x="244.2" y="248.9" class="st1" width="5" height="5"/>
	<rect x="256.7" y="248.9" class="st1" width="5" height="5"/>
	<rect x="269.1" y="248.9" class="st1" width="5" height="5"/>
	<rect x="281.5" y="248.9" class="st3" width="5" height="5"/>
	<rect x="207" y="259.6" class="st3" width="5" height="5"/>
	<rect x="219.4" y="259.6" class="st1" width="5" height="5"/>
	<rect x="231.8" y="259.6" class="st3" width="5" height="5"/>
	<rect x="244.2" y="259.6" class="st1" width="5" height="5"/>
	<rect x="256.7" y="259.6" class="st1" width="5" height="5"/>
	<rect x="269.3" y="259.4" class="st1" width="5" height="5.1"/>
	<rect x="281.5" y="259.6" class="st1" width="5" height="5"/>
	<rect x="207" y="270.4" class="st1" width="5" height="5"/>
	<rect x="219.6" y="270.1" class="st1" width="5" height="5"/>
	<rect x="231.8" y="270.4" class="st1" width="5" height="5"/>
	<rect x="244.2" y="270.4" class="st3" width="5" height="5"/>
	<rect x="256.7" y="270.4" class="st1" width="5" height="5"/>
	<rect x="269.1" y="270.4" class="st1" width="5" height="5"/>
	<rect x="281.5" y="270.4" class="st1" width="5" height="5"/>
	<rect x="207" y="281.1" class="st1" width="5" height="5.1"/>
	<rect x="219.4" y="281.1" class="st1" width="5" height="5.1"/>
	<rect x="231.8" y="281.1" class="st1" width="5" height="5.1"/>
	<rect x="244.5" y="280.8" class="st1" width="5" height="5"/>
	<rect x="256.7" y="281.1" class="st1" width="5" height="5.1"/>
	<rect x="269.1" y="281.1" class="st3" width="5" height="5.1"/>
	<rect x="281.5" y="281.1" class="st1" width="5" height="5.1"/>
	<rect x="207" y="291.8" class="st1" width="5" height="5"/>
	<rect x="219.4" y="291.8" class="st3" width="5" height="5"/>
	<rect x="231.8" y="291.8" class="st1" width="5" height="5"/>
	<rect x="244.2" y="291.8" class="st1" width="5" height="5"/>
	<rect x="256.7" y="291.8" class="st1" width="5" height="5"/>
	<rect x="269.3" y="291.6" class="st1" width="5" height="5"/>
	<rect x="281.5" y="291.8" class="st1" width="5" height="5"/>
	<path class="st1" d="M330.1,422.9c-9.7-17.3-26.5-48.4-41.1-75c-14.5-26.6-27.7-50.7-37.4-68l-11.4-20.6c-1.3-2.4-2.4-4.3-3.1-5.6
		l-0.8-1.5c-0.2-0.3-0.3-0.5-0.3-0.5s0.1,0.2,0.3,0.5l0.8,1.4l3.2,5.5c2.8,4.8,6.7,11.8,11.6,20.5c9.7,17.3,23,41.4,37.5,68
		s31.3,57.7,40.9,75.1"/>
	<path class="st1" d="M243,308.7c0.4,0.1,0.9,0.2,1.3,0.3c0.8,0.2,2,0.6,3.4,1.1c2.8,1,6.7,2.4,11,4l10.9,4.2l3.3,1.3
		c0.4,0.1,0.8,0.3,1.2,0.5c-0.4-0.1-0.9-0.2-1.3-0.3c-0.8-0.2-2-0.6-3.4-1.1c-2.8-1-6.7-2.5-10.9-4.1l-10.9-4.2l-3.3-1.2
		C243.9,309.1,243.4,308.9,243,308.7z"/>
	<path class="st1" d="M275.2,319c-0.1,0,2.4-8.2,5.8-18.1s6.1-18,6.3-18s-2.4,8.2-5.8,18.1S275.3,319,275.2,319z"/>
	<path class="st1" d="M295.7,360.8c0.2-0.4,0.4-0.8,0.7-1.1c0.6-0.8,1.2-1.8,2.1-3c1.7-2.5,4.1-6,6.6-9.9s4.6-7.5,6.1-10.2
		c0.7-1.2,1.3-2.3,1.8-3.1c0.2-0.4,0.4-0.8,0.7-1.1c-0.1,0.4-0.3,0.8-0.5,1.2c-0.4,0.8-0.9,1.9-1.6,3.2c-1.4,2.7-3.5,6.4-6,10.3
		s-4.9,7.4-6.7,9.8c-0.9,1.2-1.7,2.2-2.2,2.9C296.3,360.2,296,360.5,295.7,360.8z"/>
	<path class="st1" d="M264.6,357.9c0.4,0,0.8,0,1.2,0l3.3,0.2c2.8,0.2,6.7,0.5,11,0.8s8.2,0.7,11,1l3.3,0.4c0.4,0,0.8,0.1,1.2,0.2
		c-0.4,0-0.8,0-1.2,0l-3.3-0.2c-2.8-0.2-6.7-0.5-11-0.8s-8.2-0.7-11-1l-3.3-0.4C265.4,358.1,265,358,264.6,357.9z"/>
	<path class="st1" d="M278,397.2c0.5,0,1.1,0,1.6,0l4.3,0.2c3.6,0.2,8.6,0.5,14.1,0.9s10.5,0.8,14.1,1.1l4.3,0.4
		c0.5,0,1,0.1,1.6,0.2c-0.5,0.1-1,0.1-1.6,0l-4.3-0.2c-3.6-0.2-8.6-0.5-14.1-0.9s-10.5-0.8-14.1-1.1l-4.3-0.4
		C279,397.4,278.5,397.3,278,397.2z"/>
	<path class="st1" d="M316.8,399.7c0.2-0.5,0.5-1,0.9-1.5l2.5-3.9c2.1-3.2,4.9-7.8,7.9-12.8s5.6-9.7,7.5-13.1c0.9-1.6,1.6-3,2.2-4
		c0.2-0.5,0.5-1,0.9-1.4c-0.2,0.5-0.4,1-0.7,1.5c-0.5,1-1.2,2.4-2.1,4.1c-1.8,3.4-4.3,8.1-7.4,13.2c-3,5.1-5.9,9.6-8.1,12.8
		c-1.1,1.6-2,2.9-2.6,3.8C317.5,398.8,317.2,399.2,316.8,399.7z"/>
	
		<rect x="324" y="79.2" transform="matrix(0.9999 -1.000000e-02 1.000000e-02 0.9999 -1.017 3.2935)" class="st1" width="9.7" height="48.3"/>
	
		<rect x="239.8" y="79.7" transform="matrix(0.9999 -1.000000e-02 1.000000e-02 0.9999 -0.9178 2.528)" class="st3" width="25.1" height="26.7"/>
	
		<rect x="264.8" y="79.5" transform="matrix(0.9999 -1.000000e-02 1.000000e-02 0.9999 -0.9146 2.778)" class="st0" width="25.1" height="26.7"/>
	<path class="st1" d="M239.3,87.7c16.7,0.1,33.4,0,50.2-0.2c0.1,0,0.3-0.1,0.3-0.3c0-0.1-0.1-0.3-0.3-0.3c-16.7-0.1-33.4,0-50.2,0.3
		c-0.1,0-0.2,0.1-0.2,0.2C239.1,87.6,239.2,87.7,239.3,87.7z"/>
	
		<rect x="223.7" y="106.5" transform="matrix(1 -5.410415e-03 5.410415e-03 1 -0.6313 1.3357)" class="st3" width="45.7" height="21.7"/>
	
		<rect x="269.1" y="106.3" transform="matrix(1 -5.410415e-03 5.410415e-03 1 -0.6296 1.5813)" class="st0" width="45.7" height="21.7"/>
	<path class="st1" d="M223.7,112.7c30.3,0.3,60.8,0,91.1-0.4c0.1,0,0.2-0.2,0.2-0.3c0-0.1-0.1-0.2-0.2-0.2
		c-30.3-0.2-60.8-0.1-91.1,0.5c-0.1,0-0.2,0.1-0.2,0.3C223.5,112.6,223.6,112.7,223.7,112.7L223.7,112.7z"/>
	<rect x="206.6" y="128.4" class="st1" width="176.9" height="7.8"/>
	<rect x="235.5" y="132.1" class="st1" width="7.2" height="26.6"/>
	<rect x="342.8" y="132.1" class="st1" width="7.2" height="26.6"/>
	
		<rect x="333" y="62.1" transform="matrix(1 -5.410415e-03 5.410415e-03 1 -0.5107 1.8293)" class="st3" width="9.7" height="66.4"/>
	
		<rect x="342.8" y="74.4" transform="matrix(1 -5.410415e-03 5.410415e-03 1 -0.543 1.897)" class="st0" width="15.1" height="53.8"/>
	<path class="st1" d="M357.6,84.8c-2.5,0.3-5,0.3-7.5,0.3c-2.5,0.1-5,0-7.5-0.3c2.5-0.3,5-0.4,7.5-0.3
		C352.6,84.4,355.1,84.5,357.6,84.8z"/>
	<path class="st1" d="M357.6,82.5c-2.5,0.3-5,0.3-7.5,0.3c-2.5,0.1-5,0-7.5-0.3c2.5-0.3,5-0.4,7.5-0.3
		C352.6,82.2,355.1,82.2,357.6,82.5z"/>
	<path class="st1" d="M357.6,120.2c-2.5,0.3-5,0.3-7.5,0.3c-2.5,0.1-5,0-7.5-0.3c2.5-0.3,5-0.4,7.5-0.3
		C352.6,119.8,355.1,119.9,357.6,120.2z"/>
	<path class="st1" d="M357.6,117.9c-2.5,0.3-5,0.3-7.5,0.3c-2.5,0.1-5,0-7.5-0.3c2.5-0.3,5-0.4,7.5-0.3
		C352.6,117.5,355.1,117.6,357.6,117.9z"/>
	<path class="st1" d="M350.3,112.9c-0.1,0-0.3-5.4-0.3-12.1s0.1-12.1,0.3-12.1s0.3,5.4,0.3,12.1S350.5,112.9,350.3,112.9z"/>
	<rect x="357.8" y="87.6" class="st3" width="16.4" height="40.6"/>
	<path class="st1" d="M340.4,73.4c0,1.5-1.2,2.8-2.8,2.8s-2.8-1.2-2.8-2.8c0-1.5,1.2-2.8,2.8-2.8l0,0
		C339.2,70.6,340.4,71.8,340.4,73.4z"/>
	<rect x="336.7" y="81.1" class="st1" width="1.7" height="39.5"/>
	<g id="freepik--Desk--inject-158">
		<path class="st4" d="M597.4,426.2c0,0.1-90.4,0.3-202,0.3s-202-0.1-202-0.3s90.4-0.3,202-0.3S597.4,426,597.4,426.2z"/>
	</g>
	<path class="st4" d="M363.5,179.9c-36.8-6.3-40.2,26.9-39.9,36.5s3.5,18,6.9,26.9s1.2,21.1-1.6,30.2c-3.3,10.7-13.9,20.5-10.1,31
		c3,8.3,13.9,12.3,15.2,21c1.1,6.9-4.5,12.8-6.5,19.5c-3.9,12.5,5,25.1,13.3,35.2c3.4,4.2,7.6,8.7,13,8.8c7.5,0.1,11.9-8,15.3-14.7
		c9.4-18.5,23.2-34.5,40.2-46.4"/>
	<path class="st5" d="M451.4,278c0,0,18.4,0,31,26.9c9.3,20,35.9,87.9,31.7,107c-0.9,4.3-3.6,13.8-10.5,13.9
		c-11.6,0.2-19.8-0.4-19.8-0.4l-14.9-34.5l-14.4-49.2C454.6,341.8,431.4,282.6,451.4,278z"/>
	<path class="st5" d="M474.5,424.2l-4.6-31.1L451.4,278l-22.9-1.7l-43.1,8.5c0,0-25.4,4.1-38.5,13.4c0,0,3.9,63,4.1,69.6
		c0.5,14.4,9.4,27.2,18.4,38.6l2.4,3l-1.2,18.1L474.5,424.2z"/>
	<path class="st5" d="M366.7,289.3c0,0-18.1,3.9-29.8,19c-9.4,12.1-53.3,66.3-53.3,66.3s-22.5,12.6-26.7,25.7s0.1,24.6,9.8,24.6
		c9.8,0,35-6.7,35-6.7l49.1-56.2l1.1,9.7l11.2-49.1L366.7,289.3z"/>
	<path class="st4" d="M449.7,327.7c0.1,0.2,0.2,0.4,0.2,0.6c0.1,0.5,0.3,1,0.5,1.8c0.5,1.6,1.1,3.8,1.9,6.5c1.6,5.4,3.8,13,6.4,21.2
		s4.9,15.7,6.5,21.2l2,6.4l0.5,1.8c0.1,0.2,0.1,0.4,0.1,0.6c-0.1-0.2-0.2-0.4-0.2-0.6c-0.1-0.4-0.4-1-0.6-1.7
		c-0.5-1.6-1.2-3.7-2.1-6.4c-1.8-5.4-4.1-12.9-6.7-21.1s-4.7-15.8-6.2-21.3c-0.7-2.7-1.3-5-1.7-6.5c-0.2-0.7-0.3-1.3-0.4-1.8
		C449.8,328.1,449.8,327.9,449.7,327.7z"/>
	<path class="st4" d="M432.8,390.3c-0.4,0.1-0.8,0.2-1.3,0.3c-0.5,0.1-1,0.2-1.5,0.2c-0.6,0.1-1.3,0.2-2,0.2
		c-1.8,0.1-3.5,0.1-5.3-0.1c-2.1-0.2-4.3-0.6-6.4-1.2s-4.1-1.4-6-2.3c-1.6-0.8-3.1-1.7-4.6-2.7c-0.6-0.4-1.1-0.8-1.6-1.2
		s-0.9-0.7-1.2-1c-0.3-0.3-0.7-0.6-0.9-0.9c0.1-0.1,1.4,1.2,3.9,2.8c1.5,0.9,3,1.8,4.5,2.5c1.9,0.9,3.9,1.6,6,2.2s4.1,1,6.3,1.2
		c1.7,0.2,3.5,0.3,5.2,0.2C430.9,390.5,432.8,390.2,432.8,390.3z"/>
	<path class="st4" d="M354.5,329.8c0,0.2,0,0.4-0.1,0.6c-0.1,0.4-0.2,1-0.4,1.6s-0.4,1.5-0.6,2.5s-0.5,2.1-0.7,3.4
		c-0.5,2.5-1,5.5-1.3,8.9c-0.4,3.7-0.5,7.3-0.5,11c0.1,3.9,0.3,7.6,0.7,11c0.4,3.4,0.9,6.4,1.5,8.9c0.2,1.3,0.5,2.4,0.8,3.4
		c0.2,1,0.4,1.8,0.6,2.5l0.4,1.6c0.1,0.2,0.1,0.4,0.1,0.6c-0.1-0.2-0.2-0.4-0.2-0.5c-0.1-0.4-0.3-0.9-0.5-1.6s-0.5-1.5-0.7-2.5
		s-0.6-2.1-0.8-3.4c-0.6-2.5-1.1-5.5-1.6-8.9c-0.9-7.3-1-14.8-0.2-22.1c0.4-3.4,0.9-6.4,1.4-8.9c0.2-1.3,0.5-2.4,0.8-3.4
		c0.2-1,0.5-1.8,0.7-2.5s0.4-1.2,0.5-1.6C354.4,330.1,354.4,329.9,354.5,329.8z"/>
	<path class="st4" d="M455.4,282.2c0,0.1-1.5,0.8-3.7,2.5c-5.8,4.4-8.9,11.5-8.4,18.7c0.2,2.7,0.7,4.4,0.6,4.4
		c-0.2-0.4-0.3-0.7-0.4-1.1c-0.3-1.1-0.5-2.1-0.6-3.2c-0.7-7.4,2.5-14.7,8.5-19.1c0.9-0.7,1.8-1.2,2.8-1.7
		C454.6,282.5,455,282.3,455.4,282.2z"/>
	<path class="st6" d="M398.9,195.9c-11.6-26.2-45.8-10.6-45.8-10.6c-16.1,5.9-18.4,24-14.7,36.4c4.1,13.7,9.7,30.3,15,39.7
		c10.7,18.9,27,15.8,27,15.8l5.5,13.5c4.8,11.7,18.1,17.3,29.8,12.6c0.1,0,0.1-0.1,0.2-0.1l0,0c11.4-4.8,16.9-17.7,12.5-29.2
		L398.9,195.9z"/>
	<path class="st4" d="M348,235c0.5,1.4,2,2.1,3.4,1.7c1.4-0.4,2.2-1.9,1.8-3.3c0,0,0,0,0-0.1c-0.5-1.4-2-2.1-3.5-1.7
		C348.4,232.1,347.5,233.6,348,235C347.9,235,348,235,348,235z"/>
	<path class="st4" d="M345.6,231.6c0.4,0.2,1.9-2,4.6-3s5.3-0.4,5.5-0.8c0.1-0.2-0.5-0.7-1.6-1c-1.5-0.4-3.1-0.3-4.6,0.3
		c-1.4,0.5-2.7,1.5-3.5,2.8C345.4,230.7,345.4,231.5,345.6,231.6z"/>
	<path class="st4" d="M373.9,226.7c0.5,1.4,2,2.1,3.5,1.7c1.4-0.4,2.2-1.9,1.8-3.3c0,0,0,0,0-0.1c-0.5-1.4-2-2.1-3.4-1.7
		C374.3,223.8,373.5,225.2,373.9,226.7C373.9,226.6,373.9,226.7,373.9,226.7z"/>
	<path class="st4" d="M372.9,221.4c0.5,0.2,1.9-2,4.6-3c2.8-1,5.3-0.4,5.5-0.8c0.1-0.2-0.5-0.7-1.6-1c-1.5-0.4-3.1-0.3-4.6,0.3
		c-1.4,0.5-2.7,1.5-3.5,2.8C372.7,220.6,372.6,221.3,372.9,221.4z"/>
	<path class="st4" d="M371.1,245.8c0-0.2-1.9,0.2-4.8,0.9c-0.7,0.2-1.5,0.3-1.8-0.1c-0.3-0.7-0.4-1.5-0.3-2.3c0-2,0.1-4,0.1-6.2
		c0.1-8.8-0.2-15.9-0.5-15.9s-0.7,7.1-0.8,15.9v6.2c-0.1,1,0.1,2.1,0.7,2.9c0.4,0.4,1,0.7,1.6,0.6c0.4,0,0.9-0.1,1.3-0.3
		C369.4,246.6,371.2,246,371.1,245.8z"/>
	<path class="st7" d="M380.5,277.2c9.5-3.4,17.9-9.3,24.3-17.2c0,0-1.6,16.3-22.4,21.9L380.5,277.2z"/>
	<path class="st7" d="M375.8,254.9c-1.1-0.9-1.4-2.5-0.5-3.6c0.4-0.6,1.1-1,1.8-1c-0.4-1-0.2-2.1,0.6-2.8c0.8-0.6,1.9-0.8,2.9-0.5
		c2,0.6,3.3,2.4,3.2,4.4c-0.1,2-1.5,3.8-3.4,4.4c-1.9,0.6-4,0-5.5-1.4"/>
	<path class="st4" d="M380,244.7c-0.5,0.1,0.6,3.1-1.1,6.2s-5.1,3.9-5,4.4c0,0.2,0.9,0.3,2.3-0.1c1.8-0.6,3.3-1.9,4.2-3.5
		c0.9-1.6,1.2-3.4,0.8-5.2C380.8,245.2,380.2,244.6,380,244.7z"/>
	<path class="st4" d="M368.6,217.5c0.6,0.7,3.2-0.7,6.6-1.5s6.4-0.9,6.6-1.8c0.1-0.4-0.6-0.9-2-1.3c-3.5-0.7-7.2,0.2-10,2.5
		C368.8,216.3,368.4,217.2,368.6,217.5z"/>
	<path class="st4" d="M341.8,222.8c0.7,0.4,2.4-0.9,4.7-1.8c2.3-0.9,4.4-1.2,4.6-2c0.1-0.4-0.5-0.9-1.5-1.2
		c-2.9-0.6-5.8,0.6-7.5,3.1C341.4,221.8,341.4,222.5,341.8,222.8z"/>
	<path class="st4" d="M384.7,228.5c0,0.3-0.3,0.6-0.6,0.6l0,0c-0.4,0-0.6-0.3-0.6-0.6c0-0.4,0.3-0.6,0.6-0.6
		S384.7,228.1,384.7,228.5L384.7,228.5z"/>
	<path class="st4" d="M451.4,278c0,0-2-21.4-18.5-36c-16.5-14.6,5.8-20.4-8.5-39.8c-4.7-6.4-10-12.2-16.7-16.4
		c-1.2-0.8-2.3-1.6-3.4-2.5c-2.8-2.5-5.2-5.3-8.3-7.5c-2.3-1.7-5-2.7-7.8-2.8l0,0c-1.7-0.7-3.4-1.2-5.2-1.5c-8-1.2-16,2-23.5,5.2
		c-7.2,3.1-26.7,2.3-20.5,22.2l0,0c1.3-3.3,6.2-6,10.1-2.8c2.5,1.9,4.3,4.6,4.8,7.8c0.9,4.6,2.2,9.8,7.8,10.9
		c1.4,0.3,2.8,0.3,4.1-0.1c4.7-1,8.4-8.1,17.4-6.4c0,0,8.7,2.7,9.2,8.2s-2.5,15.6,2.8,20.5c5.4,4.8,6.3,4.7,6.1,8.9
		c0,0.9,0,1.6-0.1,2.1c-0.7,6.6-1.8,35.4,27.5,30.5l9.9-0.6L451.4,278L451.4,278z"/>
	<path class="st4" d="M462.8,281.2c0-0.3,0-0.6,0.1-0.8c0.1-0.5,0.1-1.3,0.2-2.4c0.1-2.9-0.2-5.8-0.9-8.6c-1.1-4.2-3-8.1-5.8-11.4
		c-3.1-3.8-7.6-6.8-12.3-9.8s-9.3-6-12.7-9.6c-1.6-1.7-2.9-3.7-4-5.8c-0.9-1.9-1.4-3.8-1.6-5.9c-0.3-3,0.3-5.9,1.8-8.5
		c0.4-0.7,0.9-1.3,1.5-1.9c0.2-0.2,0.4-0.4,0.6-0.6c-0.7,0.8-1.4,1.6-1.9,2.5c-1.4,2.6-2,5.5-1.6,8.4c0.2,2,0.7,3.9,1.6,5.7
		c1,2.1,2.3,4,3.9,5.6c3.3,3.6,7.8,6.6,12.6,9.5s9.3,6.1,12.4,9.9c4.7,5.7,7,13,6.6,20.3c-0.1,0.8-0.2,1.6-0.3,2.4
		C462.9,280.7,462.9,281,462.8,281.2z"/>
	<polygon class="st8" points="360.9,455.9 272.4,448.4 348.5,426.2 428.6,426.3 	"/>
	<path class="st4" d="M360.9,455.9c0,0,0.4-0.2,1.2-0.6l3.6-1.6l13.7-6l49.1-21.6l0.1,0.4l-80.1-0.1h0.1l-6.8,2l-69.4,20.2v-0.5
		l64,5.5l18.1,1.6l4.8,0.4l1.2,0.1L360.9,455.9h-0.4l-1.2-0.1l-4.8-0.4l-18.1-1.5l-64-5.3l-1.2-0.1l1.2-0.4l69.4-20.3l6.8-2h0.1
		l80.1,0.2h1l-1,0.4l-49.3,21.4l-13.7,5.9l-3.6,1.5L360.9,455.9z"/>
	<polygon class="st1" points="272.4,448.4 187.3,442.2 268.4,426.8 345.4,426.8 	"/>
	<path class="st4" d="M272.4,448.4c0,0,0.4-0.2,1.3-0.4l3.9-1.2l14.8-4.4l52.9-15.8l0.1,0.4h-76.9l0,0l-7.3,1.4l-73.9,14v-0.5
		l61.6,4.6l17.4,1.3l4.6,0.4l1.2,0.1L272.4,448.4H272l-1.2-0.1l-4.6-0.3l-17.3-1.2l-61.6-4.5l-1.8-0.1l1.7-0.3l73.9-14l7.3-1.4l0,0
		h76.9h1.5l-1.5,0.4l-53,15.6l-14.8,4.3l-3.9,1.1C272.8,448.3,272.4,448.4,272.4,448.4z"/>
	<path class="st8" d="M272.4,448.4c0,0-2-18.5-17.3-17s-35.7,11.8-52.4,11.8l-18-1.4l38.3-7.9c0,0,95.1-20.1,95.1-19.5
		s32-7.1,30.8,11.9L272.4,448.4z"/>
	<path class="st4" d="M272.4,448.4c0,0,0.5-0.2,1.4-0.4l4.1-1.2l15.5-4.5l55.4-16.1l-0.1,0.2c0.1-1.7-0.1-3.5-0.7-5.1
		c-0.6-1.7-1.7-3.1-3.1-4.1c-2.9-2.2-6.7-3-10.4-3.3c-3.8-0.3-7.7-0.1-11.5,0.4l-2.9,0.4c-0.5,0.1-1,0.1-1.5,0.2c-0.1,0-0.3,0-0.4,0
		H318c-0.1,0-0.1-0.1-0.2-0.1c0-0.1-0.1-0.1,0,0s0.1,0.1,0.1,0.1h-0.2L317,415c-2,0.3-4,0.7-6,1.1c-16,3.2-32.9,6.7-50.5,10.4
		l-39.6,8.3l-36.3,7.5v-0.5l18,1.4l0,0c5.8-0.2,11.6-1.1,17.1-2.7c5.4-1.4,10.4-3,15.1-4.4c4.7-1.4,9.2-2.7,13.4-3.6
		c2.1-0.5,4.1-0.8,6.1-1c1.9-0.3,3.8-0.2,5.6,0.2c3.1,0.7,5.9,2.5,7.8,5.1c1.4,1.9,2.5,3.9,3.3,6.1c0.5,1.4,0.9,2.8,1.1,4.2
		C272.3,447.5,272.3,448,272.4,448.4c0,0,0-0.1-0.1-0.4c-0.1-0.2-0.1-0.6-0.2-1.1c-0.3-1.4-0.7-2.8-1.2-4.1
		c-0.8-2.2-1.9-4.2-3.3-6.1c-1.9-2.5-4.7-4.3-7.7-4.9c-1.8-0.4-3.7-0.4-5.5-0.1c-1.9,0.2-4,0.6-6,1c-4.2,0.9-8.6,2.2-13.3,3.7
		s-9.7,3-15.1,4.5c-5.6,1.6-11.5,2.5-17.3,2.7l0,0l-18-1.3l-1.7-0.1l1.6-0.3l36.3-7.5l39.6-8.3c17.6-3.6,34.5-7.2,50.5-10.3
		c2-0.4,4-0.8,6-1.1c2,0,3.9-0.5,5.9-0.6c3.9-0.5,7.8-0.6,11.6-0.3c3.8,0.3,7.6,1.1,10.6,3.4c1.5,1.1,2.6,2.6,3.2,4.4
		c0.6,1.7,0.8,3.5,0.7,5.3v0.2h-0.1L293.2,443l-15.5,4.4l-4.1,1.1L272.4,448.4z"/>
	<path class="st8" d="M359,449.7c-1.6,0-58.5-4.5-58.5-4.5"/>
	<path class="st4" d="M300.5,445.3c0.2,0,0.4,0,0.6,0l1.7,0.1l6.3,0.4l20.7,1.5l20.7,1.6l6.3,0.6l1.7,0.2c0.2,0,0.4,0,0.6,0.1
		c-0.2,0-0.4,0-0.6,0l-1.7-0.1l-6.3-0.4l-20.7-1.5l-20.7-1.6l-6.3-0.6l-1.7-0.2C300.9,445.4,300.7,445.3,300.5,445.3z"/>
	<path class="st8" d="M368.4,445.9c-1.6,0-58.5-4.5-58.5-4.5"/>
	<path class="st4" d="M309.9,441.4c0.2,0,0.4,0,0.6,0l1.7,0.1l6.3,0.4l20.7,1.5l20.7,1.7l6.3,0.6l1.7,0.2c0.2,0,0.4,0,0.6,0.1
		c-0.2,0-0.4,0-0.6,0l-1.7-0.1l-6.3-0.4l-20.7-1.5l-20.7-1.6l-6.3-0.6l-1.7-0.2C310.3,441.5,310.1,441.5,309.9,441.4z"/>
	<path class="st8" d="M383.3,441.4c-1.6,0-61.2-3.6-61.2-3.6"/>
	<path class="st4" d="M322.1,437.8c0.2,0,0.4,0,0.6,0h1.8l6.6,0.3l21.6,1.2l21.6,1.3l6.6,0.5l1.8,0.1c0.2,0,0.4,0,0.6,0.1
		c-0.2,0-0.4,0-0.6,0l-1.8-0.1l-6.6-0.3l-21.6-1.2l-21.6-1.3l-6.5-0.5l-1.8-0.1C322.5,437.9,322.3,437.9,322.1,437.8z"/>
	<path class="st8" d="M396.1,436.5c-1.6,0-61.8-2.2-61.8-2.2"/>
	<path class="st4" d="M334.3,434.3c0.2,0,0.4,0,0.6,0h1.8l6.6,0.2l21.9,0.7l21.9,0.9l6.6,0.3l1.8,0.1c0.2,0,0.4,0,0.6,0.1
		c-0.2,0-0.4,0-0.6,0h-1.8l-6.6-0.1l-21.9-0.7l-21.8-0.9l-6.6-0.3l-1.8-0.1C334.7,434.4,334.5,434.3,334.3,434.3z"/>
	<path class="st8" d="M407.6,431l-61.1-0.2"/>
	<path class="st4" d="M346.5,430.7c0-0.1,13.7-0.2,30.5-0.1s30.5,0.2,30.5,0.4s-13.7,0.2-30.5,0.1S346.5,430.9,346.5,430.7z"/>
	<path class="st4" d="M258.2,426.8c0.4-0.2,0.8-0.3,1.2-0.4c1.1-0.2,2.2-0.4,3.4-0.4c7.8-0.2,14.9,4.3,18,11.5
		c0.5,1,0.8,2.1,1.1,3.2c0.1,0.4,0.2,0.8,0.2,1.2c-0.5-1.5-1-2.9-1.6-4.3c-3.2-6.9-10.1-11.2-17.7-11.2
		C261.2,426.5,259.7,426.6,258.2,426.8z"/>
	<path class="st4" d="M267.5,424.4c0.4-0.2,0.8-0.3,1.2-0.4c1.1-0.2,2.2-0.4,3.4-0.4c7.8-0.2,14.9,4.3,18,11.5
		c0.5,1,0.8,2.1,1.1,3.2c0.1,0.4,0.2,0.8,0.2,1.2c-0.5-1.5-1-2.9-1.6-4.3c-3.2-6.8-10.1-11.2-17.7-11.2
		C270.5,424,269,424.1,267.5,424.4z"/>
	<path class="st4" d="M277.2,422.6c0.4-0.2,0.8-0.3,1.2-0.4c1.1-0.3,2.2-0.4,3.3-0.5c1.7-0.1,3.4-0.1,5,0.2c2,0.4,4,1.2,5.7,2.3
		c3.1,2.1,5.6,5,7.1,8.4c0.5,1,0.8,2.1,1.1,3.2c0.1,0.4,0.2,0.8,0.2,1.2c-0.4-1.5-1-2.9-1.6-4.3c-1.6-3.3-4-6.1-7.1-8.1
		c-3.1-1.9-6.8-2.8-10.4-2.5C278.9,422.3,277.2,422.7,277.2,422.6z"/>
	<path class="st4" d="M287.5,420.5c0.4-0.2,0.7-0.3,1.1-0.4c1.1-0.3,2.1-0.5,3.2-0.6c1.6-0.2,3.2-0.2,4.8,0.1c2,0.4,3.8,1.2,5.4,2.4
		c3,2.1,5.3,4.9,6.8,8.3c0.4,1,0.8,2,1,3.1c0.1,0.4,0.2,0.8,0.2,1.2c-0.4-1.4-0.9-2.8-1.5-4.1c-1.5-3.2-3.8-6-6.7-8
		c-1.6-1.1-3.4-1.9-5.2-2.3c-1.6-0.3-3.1-0.4-4.7-0.2C289.2,420.2,287.6,420.6,287.5,420.5z"/>
	<path class="st4" d="M298.2,418.9c0.3-0.2,0.7-0.3,1.1-0.4c0.7-0.2,1.7-0.5,3-0.8c1.5-0.4,3.1-0.4,4.6-0.2c1.9,0.4,3.6,1.3,5.1,2.5
		c2.8,2.1,5,4.8,6.3,8c0.4,1,0.7,2,0.9,3c0.1,0.4,0.1,0.7,0.2,1.1c-0.1,0-0.4-1.6-1.4-4c-1.4-3.1-3.6-5.7-6.3-7.8
		c-1.4-1.1-3.1-2-4.9-2.4c-1.5-0.3-3-0.2-4.5,0.1C299.8,418.5,298.2,418.9,298.2,418.9z"/>
	<path class="st6" d="M293.3,390.7c2.7,0.5,5.4-0.2,8.2-0.4c2.7-0.1,5.9,0.6,7.3,2.9c1,1.9,1,4.1,0,5.9s-2.2,3.5-3.7,4.9"/>
	<path class="st4" d="M270,357.4l42.4,54.3c0.3,0.4,0.3,1-0.2,1.4l-3.5,2.7c-0.4,0.3-1,0.3-1.4-0.2l-42.4-54.3
		c-0.3-0.4-0.3-1,0.2-1.4l3.5-2.7C269.1,356.9,269.7,356.9,270,357.4z"/>
	<path class="st4" d="M265.8,354.5l3.2,4.1c0.1,0.2,0.1,0.5-0.1,0.6l-1.6,1.2c-0.2,0.1-0.5,0.1-0.6-0.1l-3.2-4.1
		c-0.1-0.2-0.1-0.5,0.1-0.6l1.6-1.2C265.4,354.2,265.7,354.3,265.8,354.5z"/>
	<polygon class="st4" points="306.5,414.3 313.5,419.6 314.2,419.1 312.2,411.7 	"/>
	<path class="st4" d="M279.5,382.5h-0.1L266,365.3c-1.6-2.1-1.5-4.9,0.2-6.3l0.6-0.5c0,0,0.1,0,0.2,0l0,0c0,0,0.1,0.1,0,0.2l0,0
		l-0.6,0.5c-1.7,1.3-1.8,4-0.2,6l13.4,17.2c0,0.1,0,0.1,0,0.2C279.6,382.5,279.6,382.5,279.5,382.5z"/>
	<path class="st6" d="M287.2,385.3c0,0-4.4-3.7-7.6-3.3c-3.3,0.4-14.2,12.2-14.6,19.2s-3.3,11.1,1.8,14s12.9,7.4,18.1,5.9
		c0,0,9.2,1.1,10.3-1.4c0,0,8.1,2.6,8.7-3c0,0,5.8-0.9,5.5-4.5C308.9,408.7,287.2,385.3,287.2,385.3z"/>
	<path class="st7" d="M303.8,416.7c-0.1,0.1-5.1-4.6-11.3-10.5s-11-10.8-10.9-10.9s5.1,4.6,11.3,10.5S303.8,416.6,303.8,416.7z"/>
	<path class="st7" d="M295,419.6c-0.3-0.1-0.7-0.2-1-0.4c-0.8-0.4-1.7-0.8-2.4-1.3c-2.6-1.6-5.1-3.4-7.4-5.4c-2.7-2.3-5-4.5-6.7-6.2
		l-2-1.9c-0.5-0.5-0.7-0.7-0.7-0.8c0.3,0.2,0.6,0.4,0.8,0.6c0.5,0.4,1.2,1,2.1,1.8c1.7,1.5,4.1,3.7,6.8,6c2.3,2,4.7,3.8,7.2,5.4
		C293.8,418.9,295.1,419.6,295,419.6z"/>
	<path class="st7" d="M285,420.7c-0.9-0.2-1.7-0.6-2.5-1c-1.9-1-3.8-2.1-5.5-3.4c-1.8-1.2-3.5-2.6-5.1-4c-0.7-0.6-1.3-1.2-1.9-1.9
		c0.7,0.5,1.5,1,2.1,1.6c1.3,1,3.1,2.4,5.2,3.8s4,2.6,5.4,3.5C283.5,419.7,284.3,420.2,285,420.7z"/>
	<path class="st6" d="M491.7,388.5c-6.5-3.1-13.7-3.9-20.8-2.5c-11.9,2.3-36.8,8.3-45.5,9.3s-45,9.1-45,9.1l3.8,21.6l118.8-0.2
		C505.3,412.7,509.3,396.6,491.7,388.5z"/>
	<path class="st6" d="M376.4,426h8l12.9-25.3c-1.6-0.3-36-5.4-38-4.8l-8.2,29.2C351,425.2,375.6,426,376.4,426z"/>
	<path class="st6" d="M352.9,425.7c0,0,0.2,0.1,0.6,0.1c2.8,0.3,15.9-0.5,15.9-0.5c0.6-1.7-0.5-6.8-2.2-7.1s-15.5,0.6-15.5,0.6
		s-2.2,0.3-2.7,4C348.6,425.2,352.9,425.7,352.9,425.7z"/>
	<path class="st6" d="M348.5,418.2c0,0,0.2,0.1,0.6,0.1c2.8,0.3,15.2,0.2,15.7-1.3c0.6-1.7-0.4-5.9-2-6.2s-15.6,0.6-15.6,0.6
		s-2.2,0.3-2.7,4C344.2,417.7,348.5,418.2,348.5,418.2z"/>
	<path class="st6" d="M346.3,411c0.2,0.1,0.4,0.1,0.6,0.1c2.8,0.3,15.2,0.2,15.7-1.3c0.6-1.7-0.4-5.9-2-6.2s-15.6,0.6-15.6,0.6
		s-2.2,0.3-2.7,4C342,410.4,346.3,411,346.3,411z"/>
	<path class="st6" d="M344.2,403.7c0,0,0.2,0.1,0.6,0.1c2.8,0.3,15.2,0.2,15.7-1.3c0.6-1.7-0.4-5.9-2-6.2S343,397,343,397
		s-2.2,0.3-2.7,4C339.9,403.2,344.2,403.7,344.2,403.7z"/>
	<path class="st7" d="M363.6,418.2c0,0.2-2.7,0.5-6,0.6s-6,0-5.9-0.2c0-0.2,2.7-0.5,6-0.6C360.9,417.8,363.6,418,363.6,418.2z"/>
	<path class="st7" d="M363.7,410.9c0,0.2-3.8,0.5-8.6,0.7s-8.6,0.1-8.6-0.1s3.8-0.5,8.6-0.7S363.7,410.7,363.7,410.9z"/>
	<path class="st7" d="M363.1,403.5c0,0.2-3.8,0.5-8.6,0.7c-4.7,0.1-8.6,0.1-8.6-0.1s3.8-0.5,8.6-0.7S363.1,403.3,363.1,403.5z"/>
	<path class="st6" d="M382.9,398.9c0,0-23.4-10.4-24.8-8.9s-3.7,6.3-3.7,6.3L382.9,398.9z"/>
	<g id="freepik--Clock--inject-158">
		<circle class="st3" cx="522.7" cy="145.9" r="53.8"/>
		<path class="st4" d="M469,142.4c0,0,0,0.3,0,0.9s0,1.4,0,2.6c0,0.6,0,1.2,0,1.9s0.1,1.4,0.2,2.3s0.2,1.7,0.2,2.6
			c0,0.5,0.1,1,0.2,1.4c0.1,0.5,0.2,1,0.3,1.5c0.9,5.1,2.6,10,5,14.6c3.1,6.1,7.4,11.6,12.6,16.1l2.2,1.9c0.8,0.6,1.6,1.1,2.4,1.7
			s1.6,1.2,2.5,1.7l2.7,1.5c0.5,0.2,0.9,0.5,1.4,0.8l1.5,0.6l2.9,1.3c1,0.4,2,0.7,3.1,1.1c1,0.4,2.1,0.7,3.2,0.9
			c2.2,0.6,4.4,1,6.7,1.2c1.2,0.1,2.3,0.3,3.5,0.4l3.5,0.1c0.6,0,1.2,0,1.8,0l1.8-0.2c1.2-0.1,2.4-0.2,3.6-0.4
			c2.5-0.4,4.9-0.9,7.3-1.6l1.8-0.5l0.9-0.3l0.9-0.4l3.6-1.4c1.2-0.5,2.3-1.2,3.5-1.8c0.6-0.3,1.2-0.6,1.7-0.9l1.7-1.1
			c2.2-1.4,4.4-3,6.4-4.8l2.9-2.8l0.7-0.7l0.7-0.8l1.3-1.6l1.3-1.6l1.2-1.7l1.2-1.7l0.6-0.9c0.2-0.3,0.4-0.6,0.5-0.9l2.1-3.6
			c0.6-1.3,1.1-2.6,1.7-3.9c2.1-5.3,3.4-11,3.9-16.7c0.3-5.7-0.3-11.5-1.6-17.1c-0.4-1.4-0.8-2.7-1.2-4s-1-2.6-1.6-3.9l-0.4-1
			l-0.5-0.9l-1-1.8l-1-1.8l-1.1-1.7l-1.1-1.7l-0.6-0.8l-0.6-0.8l-2.5-3.2c-1.8-2-3.7-3.8-5.7-5.6l-1.5-1.3c-0.5-0.4-1-0.8-1.6-1.2
			c-1.1-0.7-2.1-1.5-3.2-2.2l-3.3-1.9l-0.8-0.5c-0.3-0.1-0.6-0.3-0.9-0.4l-1.7-0.8c-2.3-1-4.6-1.9-7-2.6c-1.2-0.3-2.4-0.6-3.6-0.8
			l-1.8-0.4c-0.6-0.1-1.2-0.2-1.8-0.2l-3.5-0.4c-1.2-0.1-2.3-0.1-3.5-0.1c-2.3,0-4.6,0.1-6.8,0.3c-1.1,0.1-2.2,0.3-3.3,0.5
			c-1.1,0.2-2.2,0.4-3.2,0.6l-3.1,0.9l-1.5,0.4l-1.5,0.6l-2.9,1.2c-1,0.4-1.8,0.9-2.7,1.3s-1.7,0.8-2.6,1.3l-2.4,1.6
			c-5.7,3.8-10.7,8.6-14.6,14.3c-3,4.3-5.3,8.9-6.9,13.9c-0.2,0.5-0.3,1-0.5,1.5s-0.3,0.9-0.4,1.4c-0.2,0.9-0.4,1.8-0.6,2.6
			s-0.4,1.5-0.5,2.2s-0.2,1.3-0.2,1.9c-0.1,1.1-0.2,2-0.3,2.5S469,142.4,469,142.4s0-0.3,0.1-0.9s0.2-1.4,0.3-2.6
			c0.1-0.6,0.1-1.2,0.2-1.9s0.3-1.4,0.5-2.2s0.4-1.7,0.6-2.6c0.1-0.5,0.2-1,0.4-1.4c0.2-0.5,0.3-1,0.5-1.5c1.5-5,3.8-9.7,6.8-14
			c3.9-5.7,8.9-10.6,14.6-14.4l2.4-1.6c0.9-0.5,1.7-0.9,2.6-1.4s1.8-1,2.7-1.3l2.9-1.2l1.5-0.6l1.5-0.4l3.1-0.9
			c1.1-0.3,2.1-0.4,3.2-0.7c1.1-0.2,2.2-0.4,3.3-0.5c2.3-0.3,4.6-0.4,6.9-0.4c1.2,0,2.3,0,3.5,0.1l3.6,0.4c0.6,0.1,1.2,0.1,1.8,0.2
			l1.8,0.4c1.2,0.3,2.4,0.5,3.6,0.8c2.4,0.7,4.8,1.6,7.1,2.6l1.8,0.8c0.3,0.1,0.6,0.2,0.9,0.4l0.8,0.5l3.4,1.9
			c1.1,0.7,2.1,1.5,3.2,2.2c0.5,0.4,1.1,0.7,1.6,1.2l1.5,1.3c2.1,1.7,4,3.6,5.8,5.6l2.5,3.2l0.6,0.8l0.6,0.9l1.1,1.7l1.1,1.7l1,1.8
			l1,1.9l0.5,0.9l0.4,1c0.5,1.3,1,2.6,1.6,3.9l1.2,4.1c3,11.3,2.2,23.2-2.2,34.1l-1.7,3.9l-2.1,3.7c-0.2,0.3-0.3,0.6-0.5,0.9
			l-0.6,0.9l-1.2,1.7l-1.2,1.7l-1.3,1.6l-1.4,1.5l-0.7,0.8l-0.7,0.7l-2.9,2.8c-2,1.7-4.2,3.3-6.5,4.8l-1.7,1.1
			c-0.5,0.4-1.2,0.6-1.7,0.9c-1.2,0.6-2.3,1.2-3.5,1.8l-3.6,1.5l-0.9,0.4c-0.3,0.1-0.6,0.2-0.9,0.3l-1.8,0.5
			c-2.4,0.7-4.9,1.2-7.3,1.6c-1.2,0.2-2.5,0.2-3.7,0.3l-1.8,0.2c-0.6,0-1.2,0-1.8,0l-3.6-0.1c-1.2-0.1-2.3-0.2-3.5-0.4
			c-2.3-0.3-4.5-0.7-6.8-1.2c-1.1-0.3-2.2-0.6-3.2-1s-2.1-0.7-3.1-1.1l-3-1.3l-1.5-0.6c-0.5-0.2-0.9-0.5-1.4-0.8l-2.7-1.5
			c-0.9-0.5-1.7-1.1-2.5-1.7s-1.6-1.1-2.4-1.7l-2.2-1.9c-5.2-4.5-9.5-10.1-12.6-16.2c-2.4-4.6-4.1-9.6-4.9-14.8
			c-0.1-0.5-0.2-1-0.3-1.5c-0.1-0.5-0.2-1-0.2-1.5c-0.1-0.9-0.1-1.8-0.2-2.6s-0.1-1.6-0.2-2.3s0-1.3,0-1.9c0-1.1,0-2,0.1-2.6
			S469,142.4,469,142.4z"/>
		<path class="st4" d="M547.1,147.5c-0.6,0.1-1.3,0.1-1.9,0.1l-5.2,0.1c-4.4,0.1-10.6,0.1-17.6,0.1H522V144c0-7.8,0-14.9,0.1-20
			c0-2.5,0.1-4.5,0.1-6.1c0-0.7,0-1.5,0.1-2.2c0.1,0.7,0.1,1.5,0.1,2.2c0,1.6,0.1,3.6,0.1,6.1c0.1,5.1,0.1,12.2,0.1,20
			c0,1.2,0,2.4,0,3.5l-0.3-0.4c7,0,13.2,0.1,17.6,0.1l5.2,0.1C545.9,147.4,546.5,147.4,547.1,147.5z"/>
		<path class="st4" d="M522.5,100.9c0.2,0,0.4,2,0.4,4.5s-0.2,4.5-0.4,4.5s-0.3-2-0.3-4.5S522.4,100.9,522.5,100.9z"/>
		<path class="st4" d="M547.1,108.2c0.1,0.1-1.2,1.7-2.9,3.4s-3.3,3-3.4,2.9c-0.1-0.1,1.2-1.7,2.9-3.4S546.9,108,547.1,108.2z"/>
		<path class="st4" d="M561.4,123.8c0.1,0.2-1.6,1.2-3.7,2.5c-2.1,1.3-3.8,2.3-3.9,2.2c-0.1-0.2,1.4-1.5,3.5-2.8
			S561.3,123.7,561.4,123.8z"/>
		<path class="st4" d="M569.8,147.1c0,0.2-2.8,0.4-6.2,0.4s-6.2-0.2-6.2-0.4s2.8-0.4,6.2-0.4C567,146.7,569.8,146.9,569.8,147.1z"/>
		<path class="st4" d="M484.3,146.2c0,0.2-2.6,0.4-5.8,0.4s-5.8-0.2-5.8-0.4s2.6-0.4,5.8-0.4S484.3,146.1,484.3,146.2z"/>
		<path class="st4" d="M490.4,163.5c0.1,0.1-1.9,1.9-4.4,4s-4.7,3.6-4.8,3.4s1.9-1.9,4.4-4S490.2,163.4,490.4,163.5z"/>
		<path class="st4" d="M505.3,176.9c0.2,0.1-1.3,2.4-3,5.2s-3,5.2-3.2,5.1s0.9-2.6,2.6-5.4S505.1,176.8,505.3,176.9z"/>
		<path class="st4" d="M522.5,194.2c-0.2,0-0.3-2.8-0.3-6.2s0.1-6.2,0.3-6.2s0.4,2.8,0.4,6.2S522.7,194.2,522.5,194.2z"/>
		<path class="st4" d="M549.1,186c-0.1,0.2-2.5-1.2-5.1-3.5c-2.6-2.2-4.3-4.4-4.1-4.6c0.1-0.1,2.1,1.8,4.6,4
			C547,184.1,549.2,185.8,549.1,186z"/>
		<path class="st4" d="M561.6,172.5c-0.1,0.1-2-1.5-4.1-3.6s-3.7-4-3.6-4.1s2,1.5,4.1,3.6C560.1,170.6,561.7,172.4,561.6,172.5z"/>
		<path class="st4" d="M489.8,129.7c-0.1,0.1-1.8-1.3-3.6-3.1c-1.9-1.8-3.2-3.5-3.1-3.6s1.8,1.2,3.6,3.1S489.9,129.5,489.8,129.7z"
			/>
		<path class="st4" d="M505.2,113.5c-0.1,0.1-1.7-1.2-3.5-3s-3.2-3.4-3-3.5s1.7,1.2,3.5,3S505.3,113.3,505.2,113.5z"/>
	</g>
</g>
</svg>
